<?xml version="1.0" encoding="UTF-8"?>
<svg id="Camada_2" data-name="Camada 2" xmlns="http://www.w3.org/2000/svg" xmlns:xlink="http://www.w3.org/1999/xlink" viewBox="0 0 724.79 454.65">
  <defs>
    <style>
      .cls-1 {
        fill: #b7458d;
      }

      .cls-2 {
        fill: #f2ca24;
      }

      .cls-3 {
        fill: #60b348;
      }

      .cls-4 {
        fill: #f0822f;
      }

      .cls-5 {
        clip-path: url(#clippath-1);
      }

      .cls-6 {
        clip-path: url(#clippath-2);
      }

      .cls-7 {
        fill: #00a77d;
      }

      .cls-8 {
        fill: #f9b212;
      }

      .cls-9 {
        clip-path: url(#clippath);
      }
    </style>
    <clipPath id="clippath">
      <path class="cls-1" d="M723.31,126.58c-17.55-14.38-30.63-33.03-45.52-49.9-15.54-17.62-31.98-34.6-48.06-51.7-1.56-1.66-9.21-9.66-10.54-9.78-3.08-.27-13.51,10.57-16.61,13.03-38.22,30.29-80.19,55.34-122.76,78.93-1.32.78-2.54,2.37-2.63,3.92-.11,1.92,9.57,20.34,11.19,24.17,14.71,34.99,28.59,68.74,47.94,101.7,3.84,5.83,14.23,9.76,20.62,12.63,37.54,16.89,75.19,27.89,114.54,39.44,11.1,3.26,20.15,7.41,31.98,8.87,1.11.14,1.18-.01,1.45,0,.71.04,1.45.01,2.17,0,.7-.01.79.12,2.17,0,1.25-.11,2.55.24,3.81-.15,3.86-1.2,3.47-11.47,3.42-15.03-.05-3.71-.16-6.93,0-10.84.27-2.42.52-4.79.72-7.23.1-1.15-.02-1.96,0-2.17.31-3.82.39-7.76.72-11.57.1-1.19,2-20.93,2.17-23.13.11-1.36-.02-2.69,0-2.89.19-2.42.55-4.78.72-7.23.08-1.08.59-6.44.72-8.67.06-1.02-.01-1.95,0-2.17.16-2.68.58-5.25.72-7.95.07-1.26-.03-2.34,0-2.89.34-6.91.26-14.07.72-20.96.07-1.01.42-11.45.72-14.46.13-1.31.55-7.44.72-10.12.11-1.74-.03-2.63,0-3.61.15-4.44,1.22-17.07-1.1-20.23Z"/>
    </clipPath>
    <clipPath id="clippath-1">
      <path class="cls-3" d="M213.32,187.29c.04-.65.09-1.57,0-2.17-.11-.69-.05-1.38-.71-1.85-.75-.79-13.43-1.09-17.36-1.04-1.22-1.02-7.47-.49-8.67-.72-2.28-.45-5.77-.53-7.23-.72-1.54-.2-4.48-.6-5.78-.72-1.26-.12-6.94-.71-7.23-.72-1.2-.05-14.4-1.83-15.9-2.17-.75-.17-6.06-.5-7.23-.72-1.92-.36-4.58-.49-5.78-.72-.08-.01-2.96-.59-3.61-.72-1.75-.35-4.66-1.21-5.78-1.45-.44-.09-1.8-.47-2.89-.72-.43-.1-1.69-.52-2.89-.72-.87-.15-2.29-.75-5.06-1.45-.42-.11-1.72-.51-2.89-.72-.45-.08-2.79.01-2.89,0-.88-.12-4.85-.58-5.06-.72-.56-.39-5.73-1.39-5.78-1.45-.51-.55-5.64-1.46-5.78-1.45-.46.04-8.58-1.44-8.67-1.45-.94-.09-4.91-.74-5.06-.72-.47.04-14.81-4.14-18.8-5.06-.83-.19-2.29-.75-5.06-1.45-.41-.1-1.66-.58-2.89-.72-.47-.05-3.88-1.38-5.06-1.45-.47-.03-2.6-.02-4.75.33-2.46.96-2.11,2.36-2.46,3.12-.97,2.1-1.07,3.36-1.47,5.23-.07.33-.97,2.77-.96,2.85.06.42-1.15,2.48-1.55,3.63-1.15,3.27-2.46,6.79-3.27,10.14-.14.58-.65.83-1.45,3.61-.24.82-1.24,4.9-1.45,5.06-.67.54-1.28,3.43-1.45,3.61-.47.53-1.28,3.43-1.45,3.61-.44.5-3.29,5.62-3.61,7.23-.13.65-1.78,4.15-2.17,5.78-.33,1.38-3.21,8.35-3.61,10.12-.19.83-1.39,3.88-1.79,5.04-1.14,3.24-2.51,6.83-3.27,10.14-.23,1.01-2.54,7.14-2.71,8.45-.07.54-.63,1.19-.91,3.84-.09.83-.56,2.08-.9,3.81-.03,1.48-6,21.23-6.33,22.94-.17.87-.74,2.29-1.45,5.06-.1.41-.48,1.76-.72,2.89-.21.97-.54,5.56-.72,5.78-.1.12-.84,4.36-.72,5.78.01.12-.16.29,0,1.45.13.96.47,2.72.72,3.61.47,1.64,3,7.54,3.61,9.4.86,2.61,1.23,3.06,1.45,3.61,1.44,3.68,4.28,9.04,5.06,10.84,1.14,2.63,1.49,3.8,2.17,5.06,1.64,3.08,1.94,4.24,2.17,5.06.76,2.72,6.01,12.42,6.51,13.74.61,1.6,9.19,16.31,10.84,21.69.82,2.66,4.05,7.03,4.34,7.95.85,2.76,2.62,4.31,2.89,5.06.98,2.69,2.62,4.31,2.89,5.06.99,2.72,11.41,18.44,12.29,20.96.92,2.64,8.8,14.22,9.4,15.9.93,2.63,6.63,12.53,7.23,13.74,3.06,6.1,4.54,7.1,5.06,7.59,2.54,2.41,8.06,9.86,11.38,10.36,2.08.31,7.48-4.71,9.24-6.36,2.56-2.4,4.56-5.44,6.83-7.63,17.31-16.74,36.04-31.89,53.52-48.4,13.71-12.94,26.67-28.24,41.2-40.13.29-.24,2.7-2.65,2.89-2.89.61-.79.63-.84,1.45-1.45,2.77-2.06,1.7-1.32,3.61-3.61,3.44-4.11,4.82-4.15,5.06-10.12.07-1.69-2.3-24.74-.72-35.42.2-1.38.34-11.17.72-13.74.17-1.14.47-8.91.72-10.84.65-5,.04-6.57,0-10.84-.04-4.17.51-8.15.72-12.29.47-9.42.9-17.98,0-27.47-.25-2.64-.31-21.67,0-24.58.02-.15,1.11-9.04,0-11.57Z"/>
    </clipPath>
    <clipPath id="clippath-2">
      <path class="cls-2" d="M516.73,366.41c-14.82-53.81-31.9-110.36-50.2-163.05-7.7-22.18-19.19-46.45-23.87-69.38-.97-4.76,1.44-9.1-6.14-7.97-9.82,1.46-35.03,12.78-35.24,12.86-.21.08-1.4.71-1.45.72-.21.08-7.87,2.87-7.95,2.89-.23.05-6.46,2.15-6.51,2.17-.41.11-2.12.71-2.17.72-.4.12-2.12.71-2.17.72-.38.13-2.12.71-2.17.72-.22.07-2.06.69-2.17.72-.22.07-5.01,2.15-5.06,2.17-.38.13-2.12.71-2.17.72-.38.13-4.17,1.39-4.34,1.45-.39.13-2.12.71-2.17.72-.39.12-2.12.71-2.17.72-.39.12-2.12.71-2.17.72-.41.11-2.81.7-2.89.72-.23.06-5.36,1.34-5.78,1.45-.55.13-1.75.62-2.17.72-1.02.26-2.47.61-2.89.72-.55.14-1.76.61-2.17.72-.97.27-1.94.66-2.17.72-.97.26-6.82,2.07-7.23,2.17-2.23.55-3.93,1.33-4.34,1.45-.56.15-4.66,1.33-5.06,1.45-.94.27-2.49.61-2.89.72-.93.27-6.82,2.06-7.23,2.17-.54.14-6.8,2.07-7.23,2.17-1.09.25-2.96.6-3.61.72-.56.11-2.72.59-3.61.72-1.54.24-27.97,6.35-28.92,6.51-2.12.35-22.86,4.67-23.51,5.77-.72,1.22-.32,3.58-.35,5.07-.05,2.39,1.37,8.69,1.45,9.4.14,1.26.67,5.31.72,5.78.15,1.25,1.44,7.95,1.45,8.67,0,.98.6,6.8.72,7.95.13,1.27.59,3.43.72,4.34.18,1.23.58,3.45.72,4.34.09.56.57,2.72.72,3.61.09.56.6,2.23.72,2.89.22,1.18.57,3.46.72,4.34.21,1.2.62,2.93.72,3.61.19,1.22.66,2.43.72,2.89.02.17.6,4.9.72,5.78.17,1.24,1.36,5.34,1.45,5.78.23,1.14,1.32,5.85,1.45,6.51.22,1.18.56,3.47.72,4.34.22,1.19.58,3.45.72,4.34.2,1.21.61,2.94.72,3.61.19,1.22.6,3.42.72,4.34.23,1.73,2.09,11.58,2.17,12.29.14,1.26.6,3.41.72,4.34.17,1.25,2.06,10.17,2.17,10.84.19,1.21.6,2.96.72,3.61.23,1.16.63,2.45.72,2.89.24,1.12.63,2.46.72,2.89.24,1.11.58,2.98.72,3.61.13.57.58,2.26.72,2.89.13.57.58,2.26.72,2.89.13.57,16.57,64.73,24.24,96.84.99,4.13.62,16.62,7.97,12.35,16.46-16.69,27.92-37.15,41.66-55.93,15.94-21.79,34.62-41.65,47.59-65.55l28.24,19.1c27.19,15.16,54.3,34.32,83.1,46.3,2.36.98,13.26,5.59,14.84,3.32,1.5-2.16-1.93-13.75-2.78-16.82Z"/>
    </clipPath>
  </defs>
  <g id="Layer_1" data-name="Layer 1">
    <g>
      <g>
        <path class="cls-1" d="M484.24,108.62c-5.42.61-12.76,5.98-17.92,8.17-9.55,4.05-21.21,6.54-30.13,11.79-4.2,2.47-6.09,7.2.13,7.45,5.98.24,30.75-9.65,37.26-12.71,2.13-1,13.64-6.93,14.46-7.95,2.72-3.42.55-7.25-3.79-6.76Z"/>
        <path class="cls-1" d="M241.87,185.91c-10.88.07-22.27-1.76-33.28-.81-1.14.1-2.94.12-3.77.93-3.83,3.78,2.96,6.94,6.15,7.59,8.11,1.65,36.77,2.14,43.58-1.58,2.6-1.42,5.35-4.11,2.51-6.92-2.3-2.28-11.84.78-15.2.8Z"/>
        <path class="cls-1" d="M633.12.21c-3.02.68-7.27,8.09-9.55,10.7-2.3,2.64-14.01,11.67-7.59,14.84,2.79,1.38,10.09-4.45,12.29-6.52,2.09-1.96,10.13-12.92,10.17-15.17.05-3.51-2.14-4.55-5.32-3.84Z"/>
        <path class="cls-1" d="M20.5,145.51c-.86-.69-3.97-.82-4.48-.1-1.38,1.97,3.58,6.31,5,7.55,5.13,4.44,18.34,11.81,25.04,11.86,2.85.02,4.65-1.6,3.76-4.5-1-3.28-25.42-11.5-29.33-14.82Z"/>
      </g>
      <g>
        <path class="cls-1" d="M723.31,126.58c-17.55-14.38-30.63-33.03-45.52-49.9-15.54-17.62-31.98-34.6-48.06-51.7-1.56-1.66-9.21-9.66-10.54-9.78-3.08-.27-13.51,10.57-16.61,13.03-38.22,30.29-80.19,55.34-122.76,78.93-1.32.78-2.54,2.37-2.63,3.92-.11,1.92,9.57,20.34,11.19,24.17,14.71,34.99,28.59,68.74,47.94,101.7,3.84,5.83,14.23,9.76,20.62,12.63,37.54,16.89,75.19,27.89,114.54,39.44,11.1,3.26,20.15,7.41,31.98,8.87,1.11.14,1.18-.01,1.45,0,.71.04,1.45.01,2.17,0,.7-.01.79.12,2.17,0,1.25-.11,2.55.24,3.81-.15,3.86-1.2,3.47-11.47,3.42-15.03-.05-3.71-.16-6.93,0-10.84.27-2.42.52-4.79.72-7.23.1-1.15-.02-1.96,0-2.17.31-3.82.39-7.76.72-11.57.1-1.19,2-20.93,2.17-23.13.11-1.36-.02-2.69,0-2.89.19-2.42.55-4.78.72-7.23.08-1.08.59-6.44.72-8.67.06-1.02-.01-1.95,0-2.17.16-2.68.58-5.25.72-7.95.07-1.26-.03-2.34,0-2.89.34-6.91.26-14.07.72-20.96.07-1.01.42-11.45.72-14.46.13-1.31.55-7.44.72-10.12.11-1.74-.03-2.63,0-3.61.15-4.44,1.22-17.07-1.1-20.23Z"/>
        <g class="cls-9">
          <path class="cls-8" d="M588.51,18.87c.24.37-.99,2.05-.4,2.86,9.79,10.65,18.24,23.64,28.22,34,.94.98,2.27,2.76,3.65,2.91,1.85.19,16.95-9.48,19.79-11.29,5.46-3.47,11.79-7.43,16.94-11.25,1.89-1.4,3.75-5.93,7.36-3.57,4.27,2.78.46,7.09-2.21,9.44-10.14,8.89-24.66,15.13-35.58,22.96-.51.36-1.23-.14-.89,1.25l20.68,22.85c.83.06,1.5-.31,2.23-.63,11.91-5.12,25.42-16.68,37.51-22.49,2.99-1.19,6.51-1.95,6.06,2.39-.34,3.28-8.94,8.55-11.9,10.56-8.49,5.78-17.86,10.44-26.22,16.42-.5.36-1.23-.15-.89,1.25l25.03,27.01,32.06-19.11c4.8-.96,5.77,4.01,2.84,7.24-2.51,2.77-11.17,8.15-14.75,10.56-1.76,1.18-12.56,6.93-12.72,7.65-.2.91.13,2.11.74,2.85l22.46,22.38c.99.65,1.87.32,2.88.03,7.75-2.16,17.55-10.6,25.97-12.38,6.76-1.43,7.77,4.16,3.61,7.95-5.07,4.61-18.21,9.09-24.53,12.71,1.22,4.33,13.13,13.31,7.53,17.28-6.53,4.63-13.01-11.18-16.6-11.53-3.36-.32-18.37,9.67-22.74,10.88l26.49,28.07c1.98.39,19.43-14.7,25.2-14.42,2.44.12,3.64,2.2,2.96,4.42-1.43,4.63-16.74,14.06-21.4,16.62-.53.78,11.2,11.16,11.57,14.88.18,1.83-1.17,4.56-3.24,4.61-4.57.1-14.48-14.02-16.54-13.66l-43.11,29.59c-.52.74,3.3,5.42,4.05,6.42,10.1,13.56,22.46,26.45,31.97,40.32,4.72,6.88,4.47,10.63-4.17,5.62-14.35-14.15-26.65-30.3-39.52-45.81-13.93,7.67-26.18,18.78-40.29,26.1-2.71,1.41-10.06,5.75-12.59,3.31-3.34-3.22,4.81-6.02,6.98-7.47,4.8-3.2,38.97-25.94,39.75-28.25.28-.82.16-1.67-.29-2.4l-24.22-31.5-2.67.23-42.06,27.72c-.9,1.54,8.2,13.34,9.62,15.88,1.38,2.47,3.66,5.71,2.23,8.62-.44.89-2.46,2.11-3.51,2.02-3.83-.35-13.2-17.06-16.83-20-1.47-.29-18.72,12.84-24.66,13.5-2.76.3-4.43-1.52-2.36-3.84.54-.6,8.53-4.99,10.35-6.27,1.77-1.24,12.47-8.86,12.7-9.76.42-1.61-13.16-26.12-14.74-29.85-5.31,3.52-28.82,24.62-33.29,24.57-6.51-.07,5.95-11.1,7.25-12.31,7.21-6.76,15.47-12.47,22.69-19.23l-15.09-32.07-36.62,27.34c-2.57,1.93-4.89.25-3.49-2.76.4-.85,5.32-5.42,6.48-6.53,8.74-8.35,18.67-15.63,27.88-23.44l1.4-2.18-16.32-31.52c-1.09-.16-6.09,3.24-7.46,4.1-6.89,4.28-15.2,11.52-21.99,14.88-.84.42-3.65,2.34-4.09.23-.54-2.57,26.51-21.97,30.41-24.61-5.82-12.25-14.44-23.97-20.41-35.98-.79-1.58-4.04-7.06-.24-7.02,1.5.02,6.3,6.07,7.57,7.64,7.12,8.81,11.9,19.96,18.49,28.49.5.65.99,1.56,2,1.4l32.92-23.5-18.55-38.37c-1.87-1.65-7.76-7.7-4.53-10.02,3.25-2.34,8.34,6.89,9.75,9.15,7.09,11.38,12.02,24.19,19.57,35.34l24.19-17.04c-6.89-9.83-14.9-19.2-20.79-29.7-1.51-2.7-8.45-14.51-.85-10.72,8.16,12.89,18.73,24.22,27.48,36.51l21.63-13.4c1.3-.82.43-.72.03-1.39-4.43-7.39-13-16.04-18.35-23.59-2.48-3.49-12.81-16.41-10.24-20.2.84-1.24,4.52-.28,4.74.06ZM639.02,94.68l-.6-2.49-19.97-22.72-22,13.01,1.45,3.23,19.22,22.11,21.89-13.15ZM610.91,112.82l-20.71-25.18c-3.32,1.77-25.04,15.34-25.47,17.02-.37,1.43,2.31,5.14,3.23,6.67,1.52,2.53,12.6,19.91,13.78,20.26,2.17.64,24.67-17.66,29.17-18.77ZM624.01,113.64c-.75,1.29,1.92,4.14,2.83,5.32,2.07,2.7,18.5,21.68,19.96,21.95,2.86-1.31,22.35-11.33,22.65-12.59l-23.58-27.73-1.68.32-20.18,12.73ZM557.23,109.33l-33,22.05,17,31.28,34.22-25.69-16.21-27.04c-.53-.8-1.14-.83-2-.61ZM605.24,166.95l3.04-.73,30.83-20.51-22.16-26.31-29.84,19.92,18.13,27.63ZM675.07,135.34l-22.21,12.55,24.18,24.93c1.24.02,20.6-9.67,22.33-10.94.6-.44,1.38-.66,1.16-1.66-.37-1.65-21.08-20.74-23.44-24.31-.6-.64-1.19-.69-2.02-.57ZM598.53,173.45c.74-1.27-5.62-10.9-6.83-12.85-1.28-2.07-10.49-16.47-11.5-16.55l-35.12,25.66,15.61,32.04,37.84-28.3ZM668.75,177.88c.29-1.09-.29-1.2-.71-1.81-1.73-2.49-7.59-8.18-10.11-10.85-1.72-1.82-12.23-12.65-13.38-12.64l-33.54,22.15c1.59,3.64,17.19,26.9,19.08,27.07,2.73.25,32.18-23.16,38.66-23.92ZM578.44,238.56c2.09.38,3.62-1.25,5.23-2.25,12.95-8.04,25.4-19.1,38.02-27.81l-18.44-28.39-39.27,28.22,14.46,30.23ZM703.44,214.75c.46-.64-2.59-4.3-3.24-5.06-5.29-6.24-12.63-12.42-18.46-18.4-1.44-1.48-4.07-6.11-6.1-6.15-1.78-.04-18.42,10.18-21.28,11.98-4.44,2.78-9.91,6.03-14.02,9.11-1.1.82-4.08,2.53-4.12,3.81-.09,2.62,22.31,29.65,25.02,34.32l42.21-29.6Z"/>
        </g>
      </g>
      <g>
        <path class="cls-3" d="M213.32,187.29c.04-.65.09-1.57,0-2.17-.11-.69-.05-1.38-.71-1.85-.75-.79-13.43-1.09-17.36-1.04-1.22-1.02-7.47-.49-8.67-.72-2.28-.45-5.77-.53-7.23-.72-1.54-.2-4.48-.6-5.78-.72-1.26-.12-6.94-.71-7.23-.72-1.2-.05-14.4-1.83-15.9-2.17-.75-.17-6.06-.5-7.23-.72-1.92-.36-4.58-.49-5.78-.72-.08-.01-2.96-.59-3.61-.72-1.75-.35-4.66-1.21-5.78-1.45-.44-.09-1.8-.47-2.89-.72-.43-.1-1.69-.52-2.89-.72-.87-.15-2.29-.75-5.06-1.45-.42-.11-1.72-.51-2.89-.72-.45-.08-2.79.01-2.89,0-.88-.12-4.85-.58-5.06-.72-.56-.39-5.73-1.39-5.78-1.45-.51-.55-5.64-1.46-5.78-1.45-.46.04-8.58-1.44-8.67-1.45-.94-.09-4.91-.74-5.06-.72-.47.04-14.81-4.14-18.8-5.06-.83-.19-2.29-.75-5.06-1.45-.41-.1-1.66-.58-2.89-.72-.47-.05-3.88-1.38-5.06-1.45-.47-.03-2.6-.02-4.75.33-2.46.96-2.11,2.36-2.46,3.12-.97,2.1-1.07,3.36-1.47,5.23-.07.33-.97,2.77-.96,2.85.06.42-1.15,2.48-1.55,3.63-1.15,3.27-2.46,6.79-3.27,10.14-.14.58-.65.83-1.45,3.61-.24.82-1.24,4.9-1.45,5.06-.67.54-1.28,3.43-1.45,3.61-.47.53-1.28,3.43-1.45,3.61-.44.5-3.29,5.62-3.61,7.23-.13.65-1.78,4.15-2.17,5.78-.33,1.38-3.21,8.35-3.61,10.12-.19.83-1.39,3.88-1.79,5.04-1.14,3.24-2.51,6.83-3.27,10.14-.23,1.01-2.54,7.14-2.71,8.45-.07.54-.63,1.19-.91,3.84-.09.83-.56,2.08-.9,3.81-.03,1.48-6,21.23-6.33,22.94-.17.87-.74,2.29-1.45,5.06-.1.41-.48,1.76-.72,2.89-.21.97-.54,5.56-.72,5.78-.1.12-.84,4.36-.72,5.78.01.12-.16.29,0,1.45.13.96.47,2.72.72,3.61.47,1.64,3,7.54,3.61,9.4.86,2.61,1.23,3.06,1.45,3.61,1.44,3.68,4.28,9.04,5.06,10.84,1.14,2.63,1.49,3.8,2.17,5.06,1.64,3.08,1.94,4.24,2.17,5.06.76,2.72,6.01,12.42,6.51,13.74.61,1.6,9.19,16.31,10.84,21.69.82,2.66,4.05,7.03,4.34,7.95.85,2.76,2.62,4.31,2.89,5.06.98,2.69,2.62,4.31,2.89,5.06.99,2.72,11.41,18.44,12.29,20.96.92,2.64,8.8,14.22,9.4,15.9.93,2.63,6.63,12.53,7.23,13.74,3.06,6.1,4.54,7.1,5.06,7.59,2.54,2.41,8.06,9.86,11.38,10.36,2.08.31,7.48-4.71,9.24-6.36,2.56-2.4,4.56-5.44,6.83-7.63,17.31-16.74,36.04-31.89,53.52-48.4,13.71-12.94,26.67-28.24,41.2-40.13.29-.24,2.7-2.65,2.89-2.89.61-.79.63-.84,1.45-1.45,2.77-2.06,1.7-1.32,3.61-3.61,3.44-4.11,4.82-4.15,5.06-10.12.07-1.69-2.3-24.74-.72-35.42.2-1.38.34-11.17.72-13.74.17-1.14.47-8.91.72-10.84.65-5,.04-6.57,0-10.84-.04-4.17.51-8.15.72-12.29.47-9.42.9-17.98,0-27.47-.25-2.64-.31-21.67,0-24.58.02-.15,1.11-9.04,0-11.57Z"/>
        <g class="cls-5">
          <path class="cls-4" d="M147.54,412.47c-.43,2.92-2.57,6.35-6,5.31-3.97-1.21-3.01-17.57-3.48-21.49l-52.69-8.02-5.13,61.02c-.27,1.42-1.28,5.57-3.55,4.44-5.26-2.62-3.21-16.75-3.65-21.75l2.88-45.11c-16.05-3.07-34.48-3.94-50-8.91-2.31-.74-9.01-2.56-8.4-5.84.78-4.12,4.4-1.62,6.09-1.25,17.67,3.87,35.91,5.31,53.79,8.02l4.34-43.37-52.76-8.68c-1.6,4.66-2.27,23.58-6.51,25.68-3.82,1.89-5.83-1.67-5.85-5.07-.05-6.8,2.29-15.17,2.96-22.04-5.24-1.1-25.73-3.45-28.24-7.55-1.07-1.74-1.22-3.65,1.08-4.01,4.09,1.46,26.32,5.63,28.64,4.01,1.35-.94,7.48-27.75,9.35-31.48-11.3-.88-23.85-.98-34.96-3-1.73-.31-7.37-1.09-6.93-3.78.26-1.62,2.62-1.81,3.89-1.94,13.07-1.31,27.69,1.57,40.86,1.46l10.15-33.94c-12.76-1.7-25.84-1.97-38.59-3.71-1.55-.21-7.62-1.12-8.41-1.71-1.92-1.44-.85-3.72,1.78-4.02,12.73-1.47,26.33,1.07,39.04,1.51,1.92.07,7.75.42,8.72-.74l9.75-33.98c-1.03-1.43-30-4.61-34.72-6.14-3.29-1.06-4.45-2.52-.38-3.3,12.21.38,24.47,1.76,36.53,3.65l10.96-44.35c.92-1.94,2.8-2.7,3.85-.46.99,2.1-.75,14.37-1.19,17.58-1.33,9.6-4.27,19.05-4.94,28.68l40.38,4.95,12.8-41.06c-.92-3.67-.18-10.67,4.91-9.47.8.19.75,1.44,1.02,2.02,1.43,6.36-12.79,47.88-11.33,50l27.09,4.44c.79.05,1.69,0,2.18-.71.5-.73,1.48-15.03,1.87-17.65.86-5.83,3.36-23.42,6.49-27.48,1.67-2.17,3.6-1.36,3.49,1.25-.41,9.03-2.82,19.7-3.57,29.03-.2,2.49-1.26,15.89-.63,16.88,3.06.48,24.29,5.34,25.21,4.44.26-7.55.62-15.26,1.45-22.77.53-4.77,3.05-26.4,6.08-28.61,2.74-2,4.87.69,4.78,3.25,0,.29-1.81.41-2.14,2.99l-2.88,47.24c14.44,2.87,29.12,6.88,43.78,8.47,2.26.25,7.41-1.48,7.41,3.53,0,5.05-8.33,4.17-11.86,3.97-12.94-.74-26.5-5.74-39.41-7.23l-.69,31.78,45.36,9.94c6.65,3.73,2.51,7.03-3.82,6.72-13.19-.65-28.33-6.15-41.58-7.94l-.63,37.49c1.07,1.65,30.5,5.97,35.18,7.83,5.73,2.28,3.07,7.52-2.38,7.51-4.58-.01-12.32-1.65-17.13-2.46-5.29-.89-10.56-2.16-15.77-3.38l.79,36.07c6.02,2.19,28.65,6.51,31.79,11.23,2.58,3.87-2.45,7.16-6.19,6.21l-26.39-7.25c-.39,4.21.42,18.31-6.1,17.37-6.83-.98-2.91-15.61-3.38-20.19l-25.22-6.58.76,38.28c7.48,1.45,15.8,1.84,23.09,4.02,2.96.89,9.48,3.48,5.04,7.2-4.14,3.46-22.49-.93-28.16-1.78-.48,4.6.65,10.38,0,14.82ZM104.11,210.48l-40.33-6.47-8.77,34.6,42.7,4.03,6.39-32.17ZM142.38,217.03l-30.9-5.08-5.56,31.77,34.4,5.75,2.07-32.43ZM174.29,255.25l.4-31.85-24.98-5.02-1.37,32.46,25.95,4.42ZM96.22,250.9l-43.38-4.75-10.12,34.39,47.64,4.26,5.86-33.9ZM138.14,292.83l1.14-34.75-35.11-5.74-5.04,33.96,39.02,6.52ZM173.56,263.92l-26.02-4.35-1.4,35.37,26.69,6.57.72-37.59ZM88.27,292.83l-48.34-4.96-9.5,32.43,52.78,6.51,5.06-33.98ZM138.14,336.21v-33.61l-40.51-8.02-5.07,33.26,45.58,8.37ZM172.05,310.25l-25.96-5.86.8,34.63,25.95,7.3-.79-36.07ZM138.14,386.81v-39.4c0-1.26-6.54-2.55-7.94-2.9-12.85-3.24-26.01-5.26-39.04-7.58l-5.07,43,52.06,6.88Z"/>
        </g>
      </g>
      <g>
        <path class="cls-2" d="M516.73,366.41c-14.82-53.81-31.9-110.36-50.2-163.05-7.7-22.18-19.19-46.45-23.87-69.38-.97-4.76,1.44-9.1-6.14-7.97-9.82,1.46-35.03,12.78-35.24,12.86-.21.08-1.4.71-1.45.72-.21.08-7.87,2.87-7.95,2.89-.23.05-6.46,2.15-6.51,2.17-.41.11-2.12.71-2.17.72-.4.12-2.12.71-2.17.72-.38.13-2.12.71-2.17.72-.22.07-2.06.69-2.17.72-.22.07-5.01,2.15-5.06,2.17-.38.13-2.12.71-2.17.72-.38.13-4.17,1.39-4.34,1.45-.39.13-2.12.71-2.17.72-.39.12-2.12.71-2.17.72-.39.12-2.12.71-2.17.72-.41.11-2.81.7-2.89.72-.23.06-5.36,1.34-5.78,1.45-.55.13-1.75.62-2.17.72-1.02.26-2.47.61-2.89.72-.55.14-1.76.61-2.17.72-.97.27-1.94.66-2.17.72-.97.26-6.82,2.07-7.23,2.17-2.23.55-3.93,1.33-4.34,1.45-.56.15-4.66,1.33-5.06,1.45-.94.27-2.49.61-2.89.72-.93.27-6.82,2.06-7.23,2.17-.54.14-6.8,2.07-7.23,2.17-1.09.25-2.96.6-3.61.72-.56.11-2.72.59-3.61.72-1.54.24-27.97,6.35-28.92,6.51-2.12.35-22.86,4.67-23.51,5.77-.72,1.22-.32,3.58-.35,5.07-.05,2.39,1.37,8.69,1.45,9.4.14,1.26.67,5.31.72,5.78.15,1.25,1.44,7.95,1.45,8.67,0,.98.6,6.8.72,7.95.13,1.27.59,3.43.72,4.34.18,1.23.58,3.45.72,4.34.09.56.57,2.72.72,3.61.09.56.6,2.23.72,2.89.22,1.18.57,3.46.72,4.34.21,1.2.62,2.93.72,3.61.19,1.22.66,2.43.72,2.89.02.17.6,4.9.72,5.78.17,1.24,1.36,5.34,1.45,5.78.23,1.14,1.32,5.85,1.45,6.51.22,1.18.56,3.47.72,4.34.22,1.19.58,3.45.72,4.34.2,1.21.61,2.94.72,3.61.19,1.22.6,3.42.72,4.34.23,1.73,2.09,11.58,2.17,12.29.14,1.26.6,3.41.72,4.34.17,1.25,2.06,10.17,2.17,10.84.19,1.21.6,2.96.72,3.61.23,1.16.63,2.45.72,2.89.24,1.12.63,2.46.72,2.89.24,1.11.58,2.98.72,3.61.13.57.58,2.26.72,2.89.13.57.58,2.26.72,2.89.13.57,16.57,64.73,24.24,96.84.99,4.13.62,16.62,7.97,12.35,16.46-16.69,27.92-37.15,41.66-55.93,15.94-21.79,34.62-41.65,47.59-65.55l28.24,19.1c27.19,15.16,54.3,34.32,83.1,46.3,2.36.98,13.26,5.59,14.84,3.32,1.5-2.16-1.93-13.75-2.78-16.82Z"/>
        <g class="cls-6">
          <path class="cls-7" d="M382.49,142.46l41.46,23.93,31.53-40.2c3.18-2.59,5.71-7.63,10.46-6.85,5.23.86.49,7.88-1.17,10.36-6.23,9.33-15.28,18.08-21.85,27.31l-11.28,15.82,48.1,32.57c1.29.21.92-.5,1.28-.91,3.69-4.18,7-14.53,11.66-17.22,4.8-2.77,7.06,1.34,5.85,5.84-1.24,4.61-9.3,14.53-9.69,17.13-.41,2.73,4.25,3.87,3.52,6.32-.92,3.09-6.77-1.12-8.33.31l-25.64,37.65,49.43,27.38c1.82-.35,15.56-22.65,18.88-25.93,5.53-5.47,7.08-1.13,4.83,4.83-3.38,8.95-12.57,16.95-15.68,24.13-.81,1.87.65,3.36.07,4.31-.72,1.19-4.22,1.26-5.16,2.84-2.39,5.1-25.63,30.91-25.65,33.67-.01,1.39,7.34,5.29,8.94,6.25,6.54,3.91,41.04,21.86,43.17,25.5,1.79,3.05.93,3.87-2.23,2.95-9.14-2.68-27.55-13.24-36.86-18.08-2.62-1.36-16.98-10.02-18.27-9.7-13.25,16.42-25.2,34.1-38.09,50.9l-2.9,1.07c-1.29-1.33,3.8-9.15,4.76-10.78,9.17-15.63,20.31-30.25,29.94-45.59l-46.52-25.26-28.65,42.23c3.87,3.01,24.08,11.21,23.12,16.61-.54,3.06-5.91-1.22-6.96-1.7-6.73-3.07-13.61-5.92-20.45-8.72-6.38,8.87-12.31,21.43-19.28,29.54-1.34,1.56-5.12,5.25-5.93,1.05-.61-3.14,16.55-29.25,18.65-34.23l-62.46-33.93-30.79,46.92,58.79,37.01c3.61,1.67,5.45,7.69-.26,6.06-4.35-1.24-12.24-5.74-16.62-7.97-16.04-8.19-30.95-18.37-46.65-27.14-1.37-.17-.86.33-1.23.93-4.2,6.91-10.26,20.8-15.1,26.08-1.43,1.56-2.1,2.06-4.18,1.13-.92-1.54,1.9-7.22,2.71-9.1,3.33-7.81,7.97-15.32,11.69-22.96-8.92-5.92-18.43-10.91-27.41-16.73-5.15-3.34-24.15-15.57-26.14-20.12-1.1-2.52-.97-5.62,2.5-5.47,4.57.19,23.38,14.29,28.7,17.64,8.89,5.61,18.01,10.88,27.01,16.32l29.38-47.26-36.49-21.36-18.47,23.48c-1.78,1.42-5.41,3.96-6.94,1.04-1-1.91,3.9-6.4,5.32-8.44,3.23-4.62,10.14-13.55,12.3-18.06,1.91-3.99.57-2.49-1.55-3.97-5.03-3.5-20.74-15.01-25.27-16.68-1.6-.59-4.19-.36-4.92-.87-.91-.64-.25-2.4-1.14-3.37-4.07-4.44-16.32-9.1-21.22-14.74-1.99-2.29-3.77-7.93.39-8.33,5.68-.55,25.1,16.06,26.35,15.19l28.88-41.48c-10.97-8.25-22.99-15.03-34.15-23-4.11-2.93-22.49-16.17-23.97-19.4-2.76-6,3.5-6.86,8.08-4.47,6.65,3.47,16.02,12.23,22.83,16.93,10.93,7.55,22.33,14.98,33.75,21.51l20.99-31.39-40.43-24.67c-5.16-5.16-.97-10.31,5.54-7.7l40.35,24.02c1.44-.05,4.49-5.18,5.74-6.53,4.48-4.83,10.16-10.18,16.48-12.44,4.39-1.57,3.53,1.15,1.83,4-4.35,7.31-10.76,13.88-15.77,20.73,5.01.91,20.89,14.42,24.23,14.48,2.43.05,24.15-35.53,27.82-39.76-8.91-5.03-20.23-10.55-27.81-17.39-5.03-4.54-6.86-10.51,2.31-8.09l30.32,18.13c2.31.23,11.43-16.59,18.86-17.85,3.49-.59,4.25,1.81,3.24,4.75-1.19,3.46-13.12,18.05-12.46,18.98ZM417.8,172.94l-40.75-23.79c-3.29,4.47-28.48,38.21-27.78,40.57.66,2.22,34.7,21.59,39.3,24.37l28.5-38.1c.5-.79,1.22-2.2.73-3.04ZM288.59,208.89l26.23,15.94c2.93-3.47,21.22-30.74,20.61-32.73-.49-1.62-21.72-13.64-24.79-15.6-2.45,3.73-23.06,30.71-22.05,32.39ZM475.68,210.48l-49.36-31.03-30.1,39.64c7.07,2.27,51.41,30.36,54.46,29.7.9-.19,8.49-13.26,10.01-15.46,4.19-6.06,10.84-13.67,14.22-19.75.42-.76,1.27-2.39.78-3.09ZM382.45,220.58l-38.6-23.21-21.32,32.86,36.35,22.9,23.24-30.42c.34-.53.62-1.71.33-2.13ZM251,257.33l29.08,18.05,29.25-42.19-26.87-16.94-31.19,39c-.36.6-.63,1.47-.27,2.08ZM445.37,255.98l-54.58-30.2c-3.22,3.52-24.96,29.18-24.98,31.28-.03,3.33,51.23,29.08,57.44,33.55l22.12-34.63ZM324.52,301.38l28.29-40.63-35.65-22.78-30.16,42.16,34.23,20.81c.91.43,2.39.97,3.29.44ZM504.65,286.33c-17.86-6.22-34.39-16.11-50.91-25.3l-22.06,34.26,46.54,27.22,26.43-36.18ZM330.43,306.56l61.1,35.34,27.09-43.68-58.88-33.63-29.32,41.96Z"/>
        </g>
      </g>
    </g>
  </g>
</svg>