<?xml version="1.0" encoding="UTF-8"?>
<svg id="Camada_2" data-name="Camada 2" xmlns="http://www.w3.org/2000/svg" viewBox="0 0 83.18 83.99">
  <defs>
    <style>
      .cls-1 {
        fill: #f08230;
      }
    </style>
  </defs>
  <g id="Camada_1-2" data-name="Camada 1">
    <path class="cls-1" d="M73.23,44.72c-5.33-2.51-10.85-4.75-16.43-6.63,5.65-6.54,13.29-11.33,18.91-17.89.96-1.12,3.24-3.5.21-3.24-9.34,3.68-18.95,6.94-27,13.11,1.27-7.3,3.22-14.49,3.87-21.91.13-1.51.69-6.82.02-7.75-.15-.21-.41-.44-.69-.39-1.15.2-6.12,10.71-6.82,12.39-2.3,5.48-3.63,11.3-5.82,16.81-1.69-2.69-2.56-5.83-3.91-8.7-1.91-4.07-4.22-8.53-6.5-12.41-.74-1.25-2.61-4.67-3.57-5.45-.72-.59-2.06-.62-1.91.59,2.22,10.03,3.32,20.29,3.71,30.55-5.08-2.43-10.37-6.02-15.82-7.52-4.51-1.24-8.56-1.09-3.95,3.95l18.91,14.75c-6.47.64-13.48.71-19.82,2.1-1.38.3-8.51,1.89-6.12,4.22.87.86,11.1,3.5,13,3.9,4.59.98,9.1,1.46,13.81,1.24-3.52,4.06-6.67,8.09-9.57,12.63-.55.86-3.49,5.1-3.19,5.7.09.17.44.5.63.54l22.16-14.28c.55.41.99,11.88,1.15,13.6.14,1.44.77,8.46,1.55,9.05,2.09,1.6,3.19-3.13,3.58-4.49,1.9-6.46,3-13.81,4.04-20.46,4.47,5.69,7.98,12.49,13.6,17.2,1.74,1.46,5.73,3.67,4.89-.59-.69-3.48-4.47-11.55-6.12-15.08-1.06-2.27-3.54-5.88-4.22-7.81-.1-.3-.18-.56-.13-.87,6.47-.09,12.89.15,19.35.27,1.39.03,2.72.38,4.3.31,1.32-.06,4.94-.18,3.59-2.18-.69-1.02-8.02-4.47-9.66-5.24Z"/>
  </g>
</svg>