<?xml version="1.0" encoding="UTF-8"?>
<svg id="Camada_2" data-name="Camada 2" xmlns="http://www.w3.org/2000/svg" viewBox="0 0 101.21 102.2">
  <defs>
    <style>
      .cls-1 {
        fill: #e7332f;
      }
    </style>
  </defs>
  <g id="Layer_1" data-name="Layer 1">
    <path class="cls-1" d="M89.1,54.41c-6.48-3.05-13.2-5.79-19.99-8.07,6.88-7.96,16.17-13.79,23.02-21.77,1.17-1.36,3.95-4.26.25-3.94-11.36,4.48-23.06,8.44-32.86,15.95,1.55-8.89,3.92-17.63,4.71-26.66.16-1.84.84-8.3.03-9.43-.19-.26-.5-.53-.84-.47-1.4.24-7.45,13.03-8.3,15.07-2.79,6.67-4.41,13.75-7.08,20.45-2.06-3.27-3.12-7.09-4.76-10.58-2.33-4.96-5.14-10.38-7.91-15.1-.89-1.52-3.18-5.69-4.34-6.63-.88-.71-2.51-.76-2.32.71,2.7,12.2,4.04,24.69,4.51,37.17-6.18-2.96-12.62-7.33-19.25-9.15-5.49-1.51-10.41-1.33-4.8,4.8l23.01,17.94c-7.88.78-16.4.86-24.12,2.55-1.68.37-10.36,2.3-7.45,5.14,1.06,1.04,13.51,4.26,15.81,4.75,5.59,1.2,11.07,1.78,16.8,1.51-4.28,4.94-8.11,9.85-11.65,15.36-.67,1.04-4.25,6.2-3.88,6.93.11.21.54.61.77.65l26.96-17.38c.67.5,1.2,14.46,1.4,16.55.16,1.76.94,10.29,1.88,11.01,2.54,1.95,3.88-3.81,4.36-5.46,2.31-7.86,3.65-16.8,4.91-24.9,5.43,6.92,9.71,15.19,16.55,20.92,2.12,1.78,6.97,4.47,5.95-.72-.83-4.24-5.44-14.05-7.45-18.35-1.29-2.76-4.3-7.15-5.14-9.51-.13-.36-.21-.68-.15-1.06,7.88-.11,15.69.18,23.54.33,1.69.03,3.31.46,5.23.38,1.6-.07,6.01-.22,4.37-2.65-.84-1.24-9.76-5.44-11.75-6.38Z"/>
  </g>
</svg>