<?xml version="1.0" encoding="UTF-8"?>
<svg id="Camada_2" data-name="Camada 2" xmlns="http://www.w3.org/2000/svg" viewBox="0 0 16.8 16.97">
  <defs>
    <style>
      .cls-1 {
        fill: #ffd000;
      }
    </style>
  </defs>
  <g id="Camada_1-2" data-name="Camada 1">
    <path class="cls-1" d="M14.79,9.03c-1.08-.51-2.19-.96-3.32-1.34,1.14-1.32,2.69-2.29,3.82-3.62.19-.23.66-.71.04-.65-1.89.74-3.83,1.4-5.46,2.65.26-1.48.65-2.93.78-4.43.03-.31.14-1.38,0-1.57-.03-.04-.08-.09-.14-.08-.23.04-1.24,2.16-1.38,2.5-.46,1.11-.73,2.28-1.18,3.4-.34-.54-.52-1.18-.79-1.76-.39-.82-.85-1.72-1.31-2.51-.15-.25-.53-.94-.72-1.1-.15-.12-.42-.13-.39.12.45,2.03.67,4.1.75,6.17-1.03-.49-2.1-1.22-3.2-1.52-.91-.25-1.73-.22-.8.8l3.82,2.98c-1.31.13-2.72.14-4,.42-.28.06-1.72.38-1.24.85.18.17,2.24.71,2.63.79.93.2,1.84.3,2.79.25-.71.82-1.35,1.63-1.93,2.55-.11.17-.71,1.03-.64,1.15.02.04.09.1.13.11l4.48-2.89c.11.08.2,2.4.23,2.75.03.29.16,1.71.31,1.83.42.32.64-.63.72-.91.38-1.31.61-2.79.82-4.13.9,1.15,1.61,2.52,2.75,3.47.35.3,1.16.74.99-.12-.14-.7-.9-2.33-1.24-3.05-.21-.46-.71-1.19-.85-1.58-.02-.06-.04-.11-.03-.18,1.31-.02,2.6.03,3.91.06.28,0,.55.08.87.06.27-.01,1-.04.72-.44-.14-.21-1.62-.9-1.95-1.06Z"/>
  </g>
</svg>