<?xml version="1.0" encoding="UTF-8"?>
<svg id="Camada_2" data-name="Camada 2" xmlns="http://www.w3.org/2000/svg" viewBox="0 0 361.92 237.66">
  <defs>
    <style>
      .cls-1 {
        fill: #e77906;
      }

      .cls-1, .cls-2, .cls-3, .cls-4, .cls-5, .cls-6 {
        fill-rule: evenodd;
      }

      .cls-2 {
        fill: #111e32;
      }

      .cls-3 {
        fill: #a3187f;
      }

      .cls-4 {
        fill: #00823f;
      }

      .cls-5 {
        fill: #f3d100;
      }

      .cls-6 {
        fill: #92348b;
      }
    </style>
  </defs>
  <g id="Layer_1" data-name="Layer 1">
    <g>
      <g>
        <path class="cls-3" d="M83.69,12.18c5.57-6.97,11.6-13.9,16.24-11.81,7.22,3.25,8.78,26.63,16.8,27.43,8.02.8,13.67-6.69,18.33-11.98,4.67-5.28,13.89-16.52,19.66-6.63,4.31,7.37,1.74,40.14,16.9,29.59,6.49-4.52,36.81-33.7,28.89-1.15-2.31,9.5-7.07,23.77,2.63,19.26,9.69-4.52,21.09-11.77,28.43-14.93,20.31-8.75-3.36,25.29,8.35,30.85,5.99,2.85,12.54.02,18.74-4.85,17.93-14.06,19.77-12.21,18.95-.65-1.31,18.59-3.31,27.53,10.26,23.98,10.95-2.86,26.68-10.49,26.68-10.49l-85,139.56s4.72-17.19,1.12-18.01c-6.74-1.55-24.1,8.49-26.31,9.01-9.78,2.33,2.65-30.69-.54-30.08-6.36,1.21-36.51,28.73-35.13,13.91.67-7.18,8.23-20.17,6.29-24.32-1.94-4.15-4.16-3.64-11.88,2.04-7.73,5.67-17.44,18.76-19.35,17.18-1.9-1.58-3.21-6.07-1.53-15.23,1.78-9.67,1.67-13.01-1.43-16.26-6.07-6.35-18.69,28.73-26.91,22.21-7.12-5.65,4.43-28.59-7.12-30.45-6.94-1.11-15.79,14.95-23.07,17.87V12.18Z"/>
        <path class="cls-6" d="M349.57,122.16s18.78,3.3,10.03,15.68c-9.26,13.09-62.66,97.12-75.42,95.17-9.63-1.47-20.2-10.81-20.2-10.81l85.6-100.04Z"/>
        <path class="cls-6" d="M99.02.09c-2.58,25.86-11.25,112.83-15.34,153.54v14.6c7.2-2.89,15.96-18.66,22.86-17.9,2.05-19.52,9.78-101.23,11.27-122.46-.36,0-.72-.02-1.09-.06-8.02-.8-9.58-24.18-16.8-27.43-.29-.13-.6-.23-.9-.29Z"/>
        <path class="cls-6" d="M151.68,5.95c-6.87,32.58-31.95,151.82-36.4,175.56,7.64,1.91,18.24-24.91,24.28-23.64,5.61-23.55,20.87-91.12,26.18-117.05-8.66-1.05-7.39-25.4-11.03-31.63-.93-1.6-1.96-2.64-3.04-3.25Z"/>
        <path class="cls-6" d="M197.7,22.44c-10.17,31.76-45.6,142.57-52.82,167.55,3.29-1.66,11.5-12.16,18.21-17.09,2.26-1.66,4.04-2.88,5.49-3.66,8.1-27.04,25.27-91.79,31.19-111.5-5-.39-1.24-11.99.74-20.11,2.71-11.13.94-15.04-2.81-15.19Z"/>
        <path class="cls-6" d="M238.9,41.1c-10.94,25.52-56.4,131.76-66.59,158.39,7.27-1,25-15.32,31.49-18.44,10.21-24.94,32.08-84.95,40.86-107.12-1.61-.04-3.2-.39-4.76-1.13-9.5-4.51,4.27-27.74-1.01-31.7Z"/>
        <path class="cls-6" d="M275.06,58.02c-15.03,31.7-63.03,132.96-72.69,153.23.53.25,1.18.3,1.98.1,2.03-.48,19.05-8.65,26.75-9.15,6.82-13.45,40.75-89.99,50.26-110.71-6.45-1.36-4.81-9.33-3.76-24.2.41-5.85.14-9.21-2.54-9.28Z"/>
        <path class="cls-5" d="M320,77.35c9.47,5.31,28.76,12.54,35.35,23.84,3.66,6.28-.33,17.14-6.35,28.18-18.98,34.86-51.3,70.13-76.38,100.79-6.85,8.38-21.99,9.28-27.76,4.97-5.77-4.31-20.85-12.19-17.08-17.18,7.02-9.32,82.05-146.3,92.23-140.6Z"/>
        <path class="cls-2" d="M347.16,114.28c-.44-5.64-9.21-4.96-8.77.69.44,5.64,9.21,4.96,8.77-.69Z"/>
        <path class="cls-2" d="M325.48,115.9c-.44-5.64-9.21-4.96-8.77.69.44,5.64,9.21,4.96,8.77-.69Z"/>
        <path class="cls-2" d="M304.24,118.86c-.44-5.64-9.21-4.96-8.77.69.44,5.64,9.21,4.96,8.77-.69Z"/>
        <path class="cls-2" d="M338.17,132.41c-.44-5.64-9.21-4.96-8.77.69.44,5.64,9.21,4.96,8.77-.69Z"/>
        <path class="cls-2" d="M317.98,132.75c-.44-5.64-9.21-4.96-8.77.69.44,5.64,9.21,4.96,8.77-.69Z"/>
        <path class="cls-2" d="M296.64,133.55c-.44-5.64-9.21-4.96-8.77.69.44,5.64,9.21,4.96,8.77-.69Z"/>
        <path class="cls-2" d="M326.84,150.39c-.44-5.64-9.21-4.96-8.77.68.44,5.64,9.21,4.96,8.77-.68Z"/>
        <path class="cls-2" d="M308.58,149.31c-.44-5.64-9.21-4.97-8.77.69.44,5.64,9.21,4.96,8.77-.69Z"/>
        <path class="cls-2" d="M287.9,147.22c-.44-5.64-9.21-4.96-8.77.69.44,5.64,9.21,4.96,8.77-.69Z"/>
        <path class="cls-2" d="M314.51,168c-.44-5.64-9.21-4.96-8.77.69.44,5.64,9.21,4.96,8.77-.69Z"/>
        <path class="cls-2" d="M296.39,164.58c-.44-5.64-9.21-4.96-8.77.69.44,5.64,9.21,4.96,8.77-.69Z"/>
        <path class="cls-2" d="M278.96,160.85c-.44-5.64-9.21-4.96-8.77.69.44,5.64,9.21,4.96,8.77-.69Z"/>
        <path class="cls-2" d="M303.33,183.65c-.44-5.64-9.21-4.96-8.77.69.44,5.64,9.21,4.97,8.77-.69Z"/>
        <path class="cls-2" d="M285.87,180.12c-.44-5.64-9.21-4.96-8.77.69.44,5.64,9.21,4.96,8.77-.69Z"/>
        <path class="cls-2" d="M269.1,176.26c-.44-5.64-9.21-4.97-8.77.69.44,5.64,9.21,4.96,8.77-.69Z"/>
        <path class="cls-2" d="M290.76,197.15c-.44-5.64-9.21-4.96-8.77.69.44,5.64,9.21,4.96,8.77-.69Z"/>
        <path class="cls-2" d="M274.16,195.04c-.44-5.64-9.21-4.96-8.77.69.44,5.64,9.21,4.96,8.77-.69Z"/>
        <path class="cls-2" d="M257.29,191.81c-.44-5.64-9.21-4.96-8.77.69.44,5.64,9.21,4.96,8.77-.69Z"/>
        <path class="cls-2" d="M245.98,208.3c-.44-5.64-9.21-4.96-8.77.69.44,5.64,9.21,4.96,8.77-.69Z"/>
        <path class="cls-2" d="M265.2,210.17c-.44-5.64-9.21-4.96-8.77.69.44,5.64,9.21,4.96,8.77-.69Z"/>
        <path class="cls-2" d="M281.19,210.68c-.44-5.64-9.21-4.96-8.77.69.44,5.64,9.21,4.96,8.77-.69Z"/>
      </g>
      <g>
        <path class="cls-1" d="M74.12,22.3c2.5-2.37,5.45-6.25,8.54-10.11v156.04c-2.52,1.01-4.86.45-6.85-2.95-4.42-7.53-9.72-16.28-10.4-20.24-.68-3.96,17.43-132.11,8.71-122.73Z"/>
        <g>
          <path class="cls-6" d="M32.5,14.22c-2.58.03-16.88-1.73-23.33-.14-6.46,1.58-4.11,42.23-6.18,64.2-.55,5.79-4.88,68.17-2.01,70.19,3.08,2.17,10.83,1.19,15.85,1.78,7.35.87,19.74-123.4,15.68-136.02Z"/>
          <path class="cls-4" d="M79.81,7.53c1.22.4-12.14,132.5-14.16,142.9-1.56,8.02-11.02,8.69-21.19,9.09-13.06.51-27.43-1.24-29.15-7.79-3.52-13.4,2.65-67.73,3.77-83.42,1.11-15.69,2.7-48.44,7.3-58.88C30.26.61,42.2,1.76,54.34,2.67c12.11.9,24.42,1.53,25.47,4.86Z"/>
          <path class="cls-1" d="M14.27,141.12c11.85.6,41.71,2.12,52.32,2.64-.13,1.06-.26,2.02-.37,2.87-10.37-1.04-39.91-3.09-51.9-3.61-.03-.62-.04-1.25-.06-1.9h0ZM79.75,11.65c-.05.84-.12,1.79-.19,2.85-11.56-1.34-43.43-4.1-53.38-4.6.07-.17.14-.33.21-.49.21-.48.43-.94.64-1.38,10.57.73,41.07,2.83,52.73,3.61h0ZM78.68,25.36l-.25,2.88c-11.53-1.37-47.33-4.46-55.4-4.73.1-.66.2-1.31.31-1.94,8.26.57,43.49,3,55.35,3.79h0ZM77.68,36.54l-.27,2.91c-10.77-1.13-47.24-3.62-55.87-3.79.06-.65.13-1.3.2-1.95,8.69.44,44.85,2.28,55.93,2.82h0ZM76.6,48.04l-.28,2.95c-10.22-.72-46.01-3.15-55.79-3.81l.15-1.93c9.95.9,46.32,2.72,55.91,2.79h0ZM75.51,59.38l-.29,2.98c-9.4-.66-44.65-3.06-55.49-3.79l.13-1.92c11.01.93,46.97,2.72,55.65,2.73h0ZM74.55,69.14l-.29,2.91c-10.86-1.02-45.46-4.19-55.09-5.07l.13-1.93c9.69,1.11,44.81,3.7,55.25,4.08h0ZM73.55,79.19l-.3,2.96c-9.65-.91-43.91-4.05-54.91-5.05l.17-1.91c11.13,1.19,45.93,3.74,55.04,4h0ZM72.73,87.23l-.3,2.94c-10-.94-44.06-4.06-54.82-5.05l.17-1.91c10.89,1.18,45.46,3.71,54.95,4.01h0ZM71.63,97.97l-.3,2.9c-11.05-1.03-44.86-4.13-54.67-5.03l.16-1.92c9.92,1.12,44.18,3.64,54.81,4.05h0ZM70.59,107.9l-.31,2.96c-9-1.02-42.9-3.37-54.54-3.81l.15-1.9c11.6.59,45.36,2.3,54.7,2.75h0ZM69.37,119.38l-.32,2.91c-10.25-1.07-43.22-3.35-54.11-3.74l.12-1.91c10.83.55,43.77,2.22,54.3,2.74h0ZM67.96,132.1l-.33,2.92c-9.72-1.03-41.41-3.23-53.28-3.72.02-.63.04-1.26.06-1.9,11.79.6,43.56,2.21,53.55,2.7Z"/>
          <path class="cls-2" d="M41.8,23.86c-.63,2.11-.69,3.38,1.73,4.37,4.23,1.72,32.63,2.42,34.4,2.05,1.77-.37,1.17-6.46,1.2-6.46.03,0-24.7-2.01-33.26-3.36-3.38-.54-2.91-.47-4.07,3.4Z"/>
          <path class="cls-2" d="M39.04,47.77c-.54,2.14-.55,3.41,1.91,4.29,4.3,1.55,32.7,1.11,34.46.66,1.75-.44.91-6.5.94-6.5.03,0-24.76-1.01-33.37-2.02-3.4-.4-2.93-.35-3.93,3.57Z"/>
          <path class="cls-2" d="M38.01,66.69c-.67,2.1-.75,3.37,1.66,4.39,4.21,1.79,32.59,2.94,34.36,2.6,1.78-.34,1.27-6.44,1.3-6.44.03,0-24.66-2.4-33.2-3.89-3.37-.59-2.91-.51-4.13,3.34Z"/>
          <path class="cls-2" d="M35.99,85.64c-.6,2.13-.63,3.39,1.81,4.33,4.26,1.65,32.67,1.87,34.43,1.47,1.76-.4,1.06-6.48,1.09-6.48.03,0-24.73-1.59-33.31-2.8-3.39-.48-2.92-.42-4.02,3.47Z"/>
          <path class="cls-2" d="M33.79,105.66c-.6,2.13-.63,3.39,1.81,4.34,4.26,1.65,32.67,1.87,34.43,1.47,1.76-.4,1.06-6.48,1.09-6.48.03,0-24.72-1.59-33.31-2.8-3.39-.48-2.92-.42-4.02,3.47Z"/>
          <path class="cls-2" d="M29.97,130.58c-.6,2.13-.63,3.39,1.81,4.34,4.26,1.65,32.66,1.87,34.43,1.47,1.76-.4,1.06-6.48,1.09-6.48.03,0-24.73-1.59-33.31-2.8-3.39-.48-2.92-.42-4.02,3.47Z"/>
        </g>
        <path class="cls-6" d="M82.66,153.63c-.62,6.2-1.14,11.33-1.51,15.01.49-.07,1-.21,1.51-.41v-14.59Z"/>
      </g>
    </g>
  </g>
</svg>